<?xml version="1.0" encoding="utf-8"?>
<!-- Generator: Adobe Illustrator 16.0.0, SVG Export Plug-In . SVG Version: 6.00 Build 0)  -->
<!DOCTYPE svg PUBLIC "-//W3C//DTD SVG 1.1//EN" "http://www.w3.org/Graphics/SVG/1.1/DTD/svg11.dtd">
<svg version="1.1" id="Layer_1" xmlns="http://www.w3.org/2000/svg" xmlns:xlink="http://www.w3.org/1999/xlink" x="0px" y="0px"
	 width="50px" height="180px" viewBox="0 0 50 180" enable-background="new 0 0 50 180" xml:space="preserve">
<path d="M19.401,4.746h10.448v125.025c0.167,0.033,0.334,0.066,0.5,0.102V4.246H18.901v126.002c0.167-0.047,0.332-0.098,0.5-0.142
	V4.746z"/>
<path d="M19.901,5.246h9.448v124.436c0.167,0.029,0.334,0.059,0.5,0.09V4.746H19.401v125.36c0.166-0.044,0.333-0.08,0.5-0.12V5.246z
	"/>
<path d="M30.349,129.873v0.511c10.381,2.277,18.151,11.522,18.151,22.587c0,12.773-10.354,23.129-23.129,23.129
	s-23.13-10.355-23.13-23.129c0-10.527,7.036-19.406,16.66-22.206v-0.517c-9.893,2.822-17.16,11.937-17.16,22.723
	c0,13.029,10.6,23.629,23.63,23.629C38.399,176.6,49,166,49,152.971C49,141.648,40.995,132.166,30.349,129.873z"/>
<path d="M29.349,130.188v-0.507"/>
<path d="M19.901,129.986v0.512"/>
<path d="M29.849,130.277c0.168,0.033,0.334,0.07,0.5,0.106v-0.511c-0.166-0.035-0.333-0.068-0.5-0.102V130.277z"/>
<path d="M19.401,130.623v-0.517c-0.168,0.044-0.333,0.095-0.5,0.142v0.517C19.067,130.717,19.233,130.668,19.401,130.623z"/>
<path d="M29.349,130.188c0.167,0.029,0.334,0.057,0.5,0.089v-0.506c-0.166-0.031-0.333-0.061-0.5-0.09V130.188z"/>
<path d="M19.901,129.986c-0.167,0.04-0.334,0.076-0.5,0.12v0.517c0.166-0.045,0.333-0.085,0.5-0.125V129.986z"/>
<path d="M48,152.971c0,12.478-10.151,22.629-22.629,22.629c-12.478,0-22.63-10.151-22.63-22.629c0-10.23,6.825-18.892,16.16-21.683
	v-0.523c-9.624,2.8-16.66,11.679-16.66,22.206c0,12.773,10.355,23.129,23.13,23.129S48.5,165.744,48.5,152.971
	c0-11.064-7.771-20.31-18.151-22.587v0.516C40.438,133.174,48,142.203,48,152.971z"/>
<path d="M29.349,130.698v-0.51"/>
<path d="M19.901,130.498v0.516"/>
<path d="M19.401,131.146v-0.523c-0.168,0.045-0.334,0.094-0.5,0.142v0.523C19.066,131.238,19.233,131.191,19.401,131.146z"/>
<path d="M29.849,130.787c0.168,0.034,0.334,0.074,0.5,0.112v-0.516c-0.166-0.036-0.332-0.073-0.5-0.106V130.787z"/>
<path d="M19.901,131.014v-0.516c-0.167,0.04-0.334,0.08-0.5,0.125v0.523C19.567,131.101,19.733,131.055,19.901,131.014z"/>
<path d="M29.349,130.698c0.167,0.029,0.334,0.056,0.5,0.089v-0.51c-0.166-0.032-0.333-0.06-0.5-0.089V130.698z"/>
</svg>
